<?xml version="1.0" encoding="UTF-8" standalone="no"?>
<!-- Created with Inkscape (http://www.inkscape.org/) -->

<svg
   xmlns:dc="http://purl.org/dc/elements/1.1/"
   xmlns:cc="http://creativecommons.org/ns#"
   xmlns:rdf="http://www.w3.org/1999/02/22-rdf-syntax-ns#"
   xmlns:svg="http://www.w3.org/2000/svg"
   xmlns="http://www.w3.org/2000/svg"
   xmlns:sodipodi="http://sodipodi.sourceforge.net/DTD/sodipodi-0.dtd"
   xmlns:inkscape="http://www.inkscape.org/namespaces/inkscape"
   width="256.19989"
   height="72.824364"
   viewBox="0 0 67.786221 19.268113"
   version="1.1"
   id="svg8"
   inkscape:version="0.92.4 (5da689c313, 2019-01-14)"
   sodipodi:docname="logo-white.svg">
  <defs
     id="defs2" />
  <sodipodi:namedview
     id="base"
     pagecolor="#ffffff"
     bordercolor="#666666"
     borderopacity="1.0"
     inkscape:pageopacity="0"
     inkscape:pageshadow="2"
     inkscape:zoom="3.7570312"
     inkscape:cx="90.54234"
     inkscape:cy="20.801313"
     inkscape:document-units="mm"
     inkscape:current-layer="g32"
     showgrid="false"
     showguides="false"
     inkscape:window-width="1920"
     inkscape:window-height="1138"
     inkscape:window-x="1592"
     inkscape:window-y="-8"
     inkscape:window-maximized="1"
     fit-margin-top="0"
     fit-margin-left="0"
     fit-margin-right="0"
     fit-margin-bottom="0"
     units="px"
     inkscape:pagecheckerboard="true" />
  <metadata
     id="metadata5">
    <rdf:RDF>
      <cc:Work
         rdf:about="">
        <dc:format>image/svg+xml</dc:format>
        <dc:type
           rdf:resource="http://purl.org/dc/dcmitype/StillImage" />
        <dc:title></dc:title>
      </cc:Work>
    </rdf:RDF>
  </metadata>
  <g
     inkscape:label="Layer 1"
     inkscape:groupmode="layer"
     id="layer1"
     transform="translate(-37.794398,-143.17531)">
    <path
       style="fill:#000000;stroke-width:16.82143402"
       d=""
       id="path222"
       inkscape:connector-curvature="0" />
    <g
       id="g32"
       style="fill:#ffffff">
      <path
         sodipodi:nodetypes="cccccc"
         style="fill:#ffffff;stroke-width:0.01254115"
         inkscape:connector-curvature="0"
         d="m 40.040042,145.71299 c 3.320825,-1.0178 7.231656,-1.57487 8.474287,-1.81498 1.060389,-0.0304 1.087819,1.35953 0.360775,1.60067 -2.906271,0.58985 -6.968773,1.54663 -8.538424,1.86536 -0.950349,0.0965 -1.220282,-1.40776 -0.296638,-1.65109 z"
         id="path777" />
      <path
         sodipodi:nodetypes="cccccccccc"
         inkscape:connector-curvature="0"
         id="path779"
         d="m 45.665726,159.20919 c -1.213659,3.75635 -3.593725,3.82304 -5.656821,2.30773 -1.769144,-1.19098 -2.477204,-3.51981 -2.128034,-5.56182 -0.04399,-0.72707 0.07833,-2.10805 1.123974,-1.85797 0.873312,0.28135 0.909592,1.32065 0.496632,1.98507 -0.414156,1.49194 -0.193925,3.30857 0.998663,4.3904 1.408394,0.93962 3.02423,0.25559 3.315512,-1.40114 0.824214,-3.02519 0.660912,-8.62833 0.625449,-13.12637 0.158213,-0.91486 1.811498,-1.34481 1.787051,-0.41759 -0.03149,4.75641 0.06729,9.679 -0.562426,13.68169 z"
         style="fill:#ffffff;stroke-width:0.01254115" />
      <path
         sodipodi:nodetypes="cccccccccccccccccccccc"
         inkscape:connector-curvature="0"
         id="path785"
         d="m 50.950123,157.31483 c 0.655134,-1.73548 0.998224,-3.5783 1.760649,-5.27498 0.620975,0.35478 0.364741,1.15192 0.41806,1.73195 0.05515,1.47011 -0.181408,2.94483 0.0085,4.41076 0.482447,0.46789 0.899388,0.3525 1.297425,-0.64481 0.284287,-0.7528 0.473825,-1.15604 0.734165,-1.91818 0.509144,-0.50507 1.495478,-0.0293 1.192195,0.55066 -0.287548,1.1756 -0.567498,2.49589 -1.57834,3.28032 -0.572788,0.47406 -1.467348,0.58319 -2.063412,0.0909 -0.733206,-0.59739 -0.825005,-1.63838 -0.850726,-2.51944 -0.0144,-2.61363 0.188026,-4.68947 0.482145,-7.37104 0.135987,-0.9919 1.590729,-0.67561 1.356618,0.0817 -0.08352,0.76986 -0.110908,1.54005 -0.186813,2.3115 -0.158537,1.49918 -0.174353,2.76057 -0.685101,4.18068 -0.347128,1.07898 -0.73435,2.43463 -1.315317,3.4171 -0.783087,1.07738 -2.886022,1.13884 -3.73758,0.11553 -0.517837,-0.59629 -0.557082,-1.42813 -0.653848,-2.17426 -0.108814,-1.59203 0.20097,-3.17287 0.458461,-4.7362 0.220762,-1.06273 0.445605,-2.13132 0.734711,-3.1748 0.347012,-0.5616 1.700959,-0.19949 1.576681,0.4714 -0.342477,0.90625 -1.670108,5.65527 -1.167712,7.82906 0.960597,1.45112 1.885014,0.20902 2.219239,-0.65786 z"
         style="fill:#ffffff;stroke-width:0.01254115" />
      <path
         inkscape:connector-curvature="0"
         id="path787"
         d="m 59.559969,150.64758 c -0.64402,-0.21906 -1.244779,0.21264 -1.800958,0.47604 -0.436526,0.34692 -0.08221,0.94135 0.311315,1.15059 0.390756,0.20415 0.806104,0.36055 1.17547,0.61006 1.226742,0.72108 2.328788,1.7969 2.711524,3.20594 0.370785,1.21364 0.08054,2.5612 -0.674685,3.56717 -0.868591,1.22549 -2.413932,2.02881 -3.928666,1.7521 -1.03578,-0.13651 -2.148045,-0.66532 -2.556907,-1.68681 -0.190879,-0.67797 0.636507,-1.46102 1.279335,-1.06011 0.640657,0.35809 1.02942,0.78043 1.684648,1.10838 1.952622,0.77743 3.520834,-2.62904 2.567692,-4.04933 -0.500356,-1.10849 -1.774,-1.33631 -2.753989,-2.02037 -0.760223,-0.47171 -1.711385,-0.88596 -2.014971,-1.80308 -0.156006,-0.72469 0.490571,-1.28964 1.063511,-1.59771 0.782893,-0.45217 1.587047,-0.9642 2.501716,-1.07708 0.556669,-0.0622 1.157629,0.19357 1.39791,0.72152 0.215856,0.34539 0.705912,0.8119 0.348514,1.21311 -0.481715,0.39641 -1.076484,-0.0647 -1.311459,-0.51042 z"
         style="fill:#ffffff;stroke-width:0.01254115"
         sodipodi:nodetypes="cccccccccccccccccc" />
      <path
         sodipodi:nodetypes="cccccccccccccc"
         inkscape:connector-curvature="0"
         id="path789"
         d="m 65.927133,146.65473 c -0.452191,2.24788 -1.301308,4.41146 -1.522809,6.70556 -0.273662,1.67713 -0.481723,3.39378 -0.240297,5.08833 0.177234,0.56712 0.910375,0.59742 1.344876,0.32325 0.680468,-0.34891 0.850651,-1.22085 1.50161,-1.59526 0.68421,-0.31357 0.86981,0.74328 0.471835,1.13346 -0.586355,0.74876 -1.051323,1.65425 -1.901479,2.14677 -0.789343,0.49896 -1.907694,0.23076 -2.40419,-0.55313 -0.462672,-0.67741 -0.565173,-1.61592 -0.607258,-2.38395 0.04212,-2.44016 0.534924,-4.80487 0.966204,-7.20865 0.236949,-1.35662 0.507268,-2.70846 0.828776,-4.04743 0.159391,-0.65398 1.120691,-1.15033 1.561368,-0.47618 0.181899,0.24859 0.231143,0.63068 0.0014,0.86723 z"
         style="fill:#ffffff;stroke-width:0.01254115" />
      <path
         sodipodi:nodetypes="ccccccccc"
         inkscape:connector-curvature="0"
         id="path791"
         d="m 63.628708,147.99849 c 1.049914,-0.21611 2.102761,-0.43293 3.16767,-0.55867 0.565282,-0.0365 1.505192,0.0166 1.644452,0.40191 0.316751,1.13356 -0.590758,1.10316 -2.521274,1.53882 -1.246941,0.28823 -2.487446,0.57283 -3.719949,0.8257 -0.554233,0.0834 -1.083165,0.27444 -1.618678,0.42966 -0.386479,0.10243 -0.850692,-0.0702 -0.968716,-0.47652 -0.140181,-0.38547 0.06373,-0.87827 0.47286,-0.99187 1.17258,-0.41133 2.530542,-0.86265 3.543635,-1.16903 z"
         style="fill:#ffffff;stroke-width:0.01254115" />
      <path
         sodipodi:nodetypes="ccccccccccccccccccccccccccc"
         inkscape:connector-curvature="0"
         id="path797"
         d="m 77.746924,152.43632 c 0.507871,-0.62815 0.427289,-2.21866 -0.826914,-2.22166 -0.991374,-0.18324 -2.220879,3.15722 -2.480398,5.21113 -0.107349,2.13313 0.135593,3.87504 1.165615,3.87912 1.433272,0.48723 1.910199,-2.9314 2.192723,-4.00564 0.772399,-3.33177 1.417878,-6.89719 1.557053,-10.32845 -0.347861,-0.38408 0.244444,-1.66042 0.668007,-0.76438 0.162729,0.30689 0.816584,-0.11799 0.348161,0.40704 -0.838992,2.08236 -0.76848,4.36446 -0.77622,6.56671 -0.09854,2.28737 -0.0126,4.59142 0.394426,6.84781 0.596421,0.47582 1.723271,-0.85081 1.961778,0.32382 0.219936,1.00657 -0.848039,1.84654 -1.790868,1.77429 -1.036194,-0.0309 -1.489499,-1.3607 -1.620394,-2.33092 -0.509141,-2.28724 -0.375034,-4.67583 -0.314661,-6.99445 0.118791,-1.88552 0.501745,-3.301 0.789819,-5.11999 0.258871,-0.84913 0.33588,-2.18381 0.97523,-2.45085 0.89135,-0.28348 1.106392,0.59157 1.114548,1.36809 -0.288798,1.93388 -0.467923,3.6447 -0.739108,5.55392 -0.446877,2.56408 -0.683592,5.35605 -1.566046,7.80829 -0.57395,1.30066 -1.474965,2.6577 -2.905693,3.08276 -1.037829,0.0995 -2.327427,-0.94963 -2.465734,-1.8947 -0.525015,-2.26275 -0.652206,-3.98912 0.467386,-7.03149 0.980025,-2.46752 1.33821,-2.5139 2.294506,-3.17598 1.124842,-0.32996 1.820263,-0.1189 2.259887,0.63189 0.5023,0.68082 0.589152,1.64547 0.205052,2.40104 -0.136285,0.6252 -0.09702,1.38435 -0.783343,1.43165 -0.385056,-0.0249 -0.439358,-0.62448 -0.124812,-0.96905 z"
         style="fill:#ffffff;stroke-width:0.01254115" />
      <path
         sodipodi:nodetypes="ccccccccccccccc"
         inkscape:connector-curvature="0"
         id="path799"
         d="m 82.318297,157.4855 c 0.405244,1.54509 1.589473,0.80885 2.134563,0.52712 1.592857,-2.07452 3.010772,-7.1654 2.002931,-7.64124 -0.892282,-0.74743 -2.468079,0.0675 -3.502764,3.15148 -1.562484,1.77178 0.124597,-3.30375 1.756806,-4.475 0.585505,-0.3005 1.208723,-0.60259 1.908207,-0.44662 0.763936,0.27057 1.222276,0.77863 1.286792,1.88308 0.217371,1.39862 -0.105721,2.79499 -0.271412,3.69004 -0.434556,1.93371 -1.289196,4.33628 -2.603041,5.35685 -1.103529,0.86698 -2.217525,0.81235 -3.085127,0.0584 -0.720929,-0.7312 -1.151542,-2.36419 -1.075656,-3.39559 0.134516,-2.74562 1.060902,-4.94724 2.595027,-6.86104 0.39476,-0.40316 0.823185,-0.16397 0.729816,0.32211 -1.256913,3.34063 -2.07764,4.40213 -1.876142,7.83043 z"
         style="fill:#ffffff;stroke-width:0.01254115" />
      <path
         sodipodi:nodetypes="cccccccccccc"
         inkscape:connector-curvature="0"
         id="path801"
         d="m 96.59548,149.28689 c -0.123495,1.91731 -0.442336,3.8183 -0.493458,5.74109 -0.07172,1.30931 -0.138455,1.19479 -0.159875,2.50583 -0.04629,2.25637 1.400028,1.06365 1.876389,-0.66823 0.492019,-1.09732 1.705559,-1.48339 1.713927,-0.78885 0.05652,0.80226 -0.523425,2.44195 -0.961561,3.12381 -0.540428,0.88188 -1.359182,1.73821 -2.430144,1.89362 -1.365956,-0.10348 -2.154202,-1.4019 -2.159443,-2.42494 0.164045,-3.17362 0.304798,-6.36061 0.863055,-9.49508 -0.06668,-0.73449 1.018827,-1.23272 1.504554,-0.65372 0.194417,0.19892 0.291449,0.49104 0.246556,0.76644 z"
         style="fill:#ffffff;stroke-width:0.01254115" />
      <path
         inkscape:connector-curvature="0"
         id="path805"
         d="m 103.32639,146.66808 c -0.74238,2.44003 -1.24334,4.87179 -1.66716,7.37166 -0.14401,1.50395 -0.55279,4.38863 0.25994,4.6672 0.91515,0.61335 1.67472,-1.38137 2.46257,-2.39038 1.02591,-0.56091 1.401,0.63043 1.09592,1.30534 -0.4298,0.79537 -1.06203,1.61224 -1.705,2.31447 -0.68084,0.65604 -1.7391,1.20226 -2.66779,0.73554 -1.02304,-0.52788 -1.397172,-1.77813 -1.300368,-2.85959 -0.0073,-4.03759 0.471158,-7.50995 2.243778,-11.34217 0.29824,-0.72991 1.73122,-0.46367 1.27811,0.19793 z"
         style="fill:#ffffff;stroke-width:0.01254115"
         sodipodi:nodetypes="cccccccccc" />
      <path
         inkscape:connector-curvature="0"
         id="path807"
         d="m 104.27812,148.05766 c 1.45968,0.08 1.05936,1.18401 -0.0644,1.48378 -1.43581,0.22193 -2.58712,0.12358 -3.93804,0.76093 -1.096517,0.62246 -1.714574,-0.91261 -1.106086,-1.14637 0.918526,-0.57727 3.509756,-0.98085 5.108546,-1.09834 z"
         style="fill:#ffffff;stroke-width:0.01254115"
         sodipodi:nodetypes="ccccc" />
      <ellipse
         transform="matrix(0.98996595,0.14130613,-0.19033985,0.98171826,0,0)"
         style="fill:#ffffff;stroke-width:0.01438428"
         ry="1.9742877"
         rx="1.3388134"
         cy="130.58533"
         cx="122.31792"
         id="path873" />
    </g>
  </g>
</svg>
