<?xml version="1.0" encoding="UTF-8"?>
<svg width="110.07mm" height="22.125mm" version="1.1" viewBox="0 0 110.07 22.125" xmlns="http://www.w3.org/2000/svg" xmlns:cc="http://creativecommons.org/ns#" xmlns:dc="http://purl.org/dc/elements/1.1/" xmlns:rdf="http://www.w3.org/1999/02/22-rdf-syntax-ns#">
 <metadata>
  <rdf:RDF>
   <cc:Work rdf:about="">
    <dc:format>image/svg+xml</dc:format>
    <dc:type rdf:resource="http://purl.org/dc/dcmitype/StillImage"/>
    <dc:title/>
   </cc:Work>
  </rdf:RDF>
 </metadata>
 <g transform="translate(-25.531 -66.007)">
  <g stroke-width=".26458" aria-label="pageWorks.pl">
   <g fill="#fff">
    <path d="m26.583 74.917h0.03858q0.44373-0.54984 1.3022-0.90675 0.85852-0.35691 1.9968-0.35691 1.8328 0 2.8746 1.3698 1.0514 1.3601 1.0514 3.1929 0 2.2476-1.254 3.7138-1.2444 1.4662-3.2701 1.4662-0.93569 0-1.6013-0.18328-0.65595-0.18328-0.94534-0.43408h-0.07717q0 2.9807 0.05788 4.7846h-1.0418q0.05788-1.2444 0.06752-2.8553 0.0096-1.6109 0.0096-3.4534v-1.7942q0-2.0257-0.04823-3.2701-0.04823-1.2444-0.21222-2.1994l0.90675-0.20257zm6.3376 3.4148q0-1.8521-0.90675-2.8746-0.90675-1.0322-2.4887-1.0322-0.97428 0-1.7267 0.38585-0.74276 0.37621-1.254 0.99357 0 0.94534 0.04823 2.4212l0.02894 1.91q0.01929 1.1961 0.01929 1.8907 0.45338 0.32797 1.1093 0.50161 0.66559 0.17363 1.418 0.17363 1.7749 0 2.7588-1.1865 0.99357-1.1961 0.99357-3.1833z" stroke-width=".26458"/>
    <path d="m42.345 82.171q-1.283 1.2251-3.2412 1.2251-1.4662 0-2.2572-0.6463-0.791-0.65595-0.791-1.91 0-1.5723 1.3505-2.4212 1.3601-0.84887 4.9389-0.87781 0.03859-0.34727 0.03859-0.68489 0-1.3215-0.75241-1.8328-0.75241-0.5209-2.0547-0.5209-1.5434 0-3.1061 0.3955l0.1254-0.82958q1.4759-0.3955 3.0193-0.3955 1.6688 0 2.6045 0.69453 0.93569 0.68489 0.93569 2.2862 0 0.5209-0.05788 1.5241-0.04823 0.99357-0.04823 1.9775 0 1.418 0.22186 3l-0.7717 0.03858q-0.09646-0.59807-0.09646-1.0225zm0.03859-3.955q-2.5466 0-4.0032 0.58842-1.4566 0.57878-1.4566 2.1222 0 1.717 2.2765 1.717 1.0418 0 1.8424-0.30868 0.81029-0.30868 1.3408-0.93569z"/>
    <path d="m45.721 85.113q0-0.88746 0.42444-1.6109 0.42444-0.72347 1.2926-1.0804v-0.03858q-0.31833-0.1254-0.5209-0.44373-0.20257-0.32797-0.20257-0.83923 0-0.86817 0.84887-1.5627v-0.01929q-0.43408-0.17363-0.8971-0.82958-0.45338-0.66559-0.45338-1.582 0-1.418 0.95498-2.4116 0.96463-1.0032 2.6238-1.0032 1.5241 0 2.3537 0.67524h0.07717q0.19293-0.80064 0.56913-1.1768 0.3762-0.38585 0.95498-0.38585 0.791 0 1.0804 0.05788l-0.07717 0.81029q-1.0418 0-1.6013 0.26045-0.54984 0.26045-0.56913 0.68489v0.05788q0.3762 0.44373 0.55948 0.88746 0.19292 0.43408 0.19292 1.0129 0 0.98392-0.46302 1.7749-0.45338 0.78135-1.3698 1.1961-0.9164 0.40514-1.9003 0.40514-0.51125 0-0.96463-0.05788-0.44373-0.05788-0.65595-0.15434-0.57878 0.42444-0.57878 1.1383 0 0.59807 0.72347 0.82958 0.72347 0.22186 3.0096 0.22186 3.5016 0 3.5016 2.209 0 1.6785-1.3119 2.836-1.3119 1.1576-3.627 1.1576-1.8135 0-2.8939-0.76206-1.0804-0.75241-1.0804-2.2572zm6.7428-8.1993q0-1.1961-0.76206-1.8714-0.75241-0.67524-2.0643-0.67524-1.2154 0-1.9486 0.6463-0.72347 0.6463-0.72347 1.7556 0 1.2154 0.7717 1.8617 0.7717 0.63666 2.0547 0.63666 1.1672 0 1.9196-0.63666 0.75241-0.63666 0.75241-1.717zm1.4952 7.8424q0-1.0611-0.75241-1.5434-0.75241-0.47267-3-0.47267-1.2058 0-2.3055-0.13505-0.69453 0.28939-1.0804 0.83923-0.38585 0.54984-0.38585 1.3119 0 1.283 0.9164 1.9582 0.9164 0.68489 2.701 0.68489 1.8714 0 2.8842-0.78135 1.0225-0.7717 1.0225-1.8617z" stroke-width=".26458"/>
    <path d="m57.239 78.332q0 1.8714 1.1479 3.0965 1.1576 1.2154 3.1158 1.2154 1.4855 0 2.4694-0.29904l-0.13505 0.7717q-0.29904 0.09646-0.92604 0.18328-0.62701 0.09646-1.3312 0.09646-2.5563 0-3.8489-1.3408-1.283-1.3505-1.283-3.328 0-1.0514 0.2508-1.9486 0.26045-0.8971 0.7717-1.6399 1.2154-1.582 3.1254-1.582 1.717 0 2.6624 1.1093 0.95498 1.1093 0.95498 2.7395 0 0.53055-0.03858 0.84887zm0.05788-0.68489h6.0482q0-1.6302-0.70418-2.508t-2.0836-0.87781q-1.283 0-2.1608 0.86817-0.86817 0.85852-1.0997 2.5177z"/>
    <path d="m82.194 70.586q0 0.33762-1.0707 3.135-1.0611 2.7878-1.9968 5.7781-0.92604 2.9807-0.92604 3.6559h-0.84887q0-0.54019-0.99357-3.8682-0.99357-3.3376-2.4212-7.5723h-0.10611q-0.29904 0.93569-1.3408 3.8489-1.0418 2.9035-1.6495 5.0064-0.59807 2.1029-0.59807 2.5852h-0.84887q0-0.3762-0.44373-1.9582-0.43408-1.582-1.1672-3.9357-0.73312-2.3537-1.1383-3.4148-0.40514-1.0707-0.53055-1.4566l-0.2508-0.70418q-0.057877-0.1447-0.20257-0.55948-0.14469-0.42444-0.14469-0.54019h1.0129q0 0.40514 1.582 5.3055 1.5916 4.8907 1.6977 6.1543h0.03858q0.01929-0.84887 1.746-5.8746 1.7267-5.0354 1.7267-5.5852h1.1479q0 0.35691 1.5916 5.2669 1.5916 4.9003 1.7074 6.1929h0.03858q0.01929-0.82958 1.746-5.8842 1.7363-5.0547 1.7363-5.5756z" stroke-width=".26458"/>
    <path d="m87.624 83.531q-1.746 0-2.9228-1.2251-1.1672-1.2347-1.1672-3.3762 0-2.4791 1.3119-3.9164 1.3119-1.4373 3.2122-1.4373 1.5048 0 2.7685 1.1576 1.2637 1.1479 1.2637 3.5016 0 2.4405-1.3215 3.8682-1.3119 1.4277-3.1447 1.4277zm0.17363-9.3087q-1.7749 0-2.6045 1.3698-0.82958 1.3601-0.82958 2.9035 0 1.9293 0.94534 3.1543t2.508 1.2251q1.7653 0 2.6141-1.3698 0.84887-1.3698 0.84887-2.8939 0-1.881-0.96463-3.135-0.96463-1.254-2.5177-1.254z"/>
    <path d="m99.856 74.84q-0.7717-0.31833-1.6206-0.31833-0.8971 0-1.5627 0.51125-0.65595 0.51125-0.96463 1.4855 0 4.5338 0.07717 6.6366h-0.94534q0.09646-2.6431 0.09646-4.746 0-2.1897-0.3762-4.3987l0.84887-0.22186q0.22186 1.1479 0.24116 1.5627h0.11576q0.59807-0.84887 1.2058-1.2637 0.61736-0.41479 1.283-0.41479 0.76206 0 1.8521 0.31833z" stroke-width=".26458"/>
    <path d="m102.23 77.483h0.0193q0.36656 0 1.3312-0.74276t2.0547-1.6302q1.0997-0.88746 1.0997-1.119h1.3601q0 0.11576-0.35691 0.44373-0.34727 0.32797-1.3601 1.0707l-1.3794 1.0129q-1.3119 0.96463-1.5241 1.1286v0.01929q0.56913 0.46302 1.2347 1.0997 0.67524 0.62701 1.8521 1.7749l0.45338 0.44373q1.1286 1.1383 1.5145 1.6109 0.3955 0.46302 0.3955 0.55948h-1.3215q0-0.24116-1.6109-1.9003-1.6013-1.6592-2.4984-2.508-0.8971-0.84887-1.2251-0.84887h-0.0386q0 0.83923 0.0675 2.6817t0.0868 2.5756h-1.0997q0.0193-0.97428 0.0386-1.418l0.0579-2.0354q0.0386-1.7363 0.0386-3.7621 0-4.0418-0.21222-6.3762l1.119-0.03858q-0.0965 4.2926-0.0965 6.3762z"/>
    <path d="m110.05 82.836 0.21222-0.90675q0.6463 0.29904 1.4084 0.43408 0.7717 0.13505 1.7556 0.13505 0.92605 0 1.4566-0.44373 0.5402-0.44373 0.5402-1.1479 0-0.57878-0.27975-1.0225-0.27974-0.44373-1.283-0.83923-1.0032-0.40514-1.8617-0.80064t-1.2733-0.94534q-0.40514-0.55948-0.40514-1.2733 0-1.0418 0.82958-1.6495t2.0932-0.60772q1.3794 0 2.5948 0.35691l-0.22187 0.81029q-0.95498-0.3955-2.4694-0.3955-0.94533 0-1.5048 0.42444-0.54984 0.42444-0.54984 1.0418 0 0.70418 0.58843 1.0997 0.58842 0.3955 1.9775 0.96463 1.3891 0.55948 1.9582 1.1286 0.57878 0.56913 0.57878 1.582 0 1.2058-0.81029 1.8714-0.81029 0.65595-2.2379 0.65595-1.6109 0-3.0965-0.47267z" stroke-width=".26458"/>
    <path d="m118.84 82.229q0-0.48232 0.27009-0.76206 0.27975-0.28939 0.73312-0.28939 0.45338 0 0.62701 0.24116 0.18328 0.24116 0.18328 0.6463 0 0.43408-0.28939 0.75241-0.27974 0.31833-0.71382 0.31833-0.42444 0-0.61737-0.26045-0.19292-0.2701-0.19292-0.6463z"/>
    <path d="m124.63 74.917h0.0386q0.44373-0.54984 1.3022-0.90675 0.85852-0.35691 1.9968-0.35691 1.8328 0 2.8746 1.3698 1.0514 1.3601 1.0514 3.1929 0 2.2476-1.254 3.7138-1.2444 1.4662-3.2701 1.4662-0.93569 0-1.6013-0.18328-0.65594-0.18328-0.94533-0.43408h-0.0772q0 2.9807 0.0579 4.7846h-1.0418q0.0579-1.2444 0.0675-2.8553 0.01-1.6109 0.01-3.4534v-1.7942q0-2.0257-0.0482-3.2701-0.0482-1.2444-0.21221-2.1994l0.90675-0.20257zm6.3376 3.4148q0-1.8521-0.90675-2.8746-0.90675-1.0322-2.4887-1.0322-0.97428 0-1.7267 0.38585-0.74276 0.37621-1.254 0.99357 0 0.94534 0.0482 2.4212l0.0289 1.91q0.0193 1.1961 0.0193 1.8907 0.45337 0.32797 1.1093 0.50161 0.6656 0.17363 1.418 0.17363 1.7749 0 2.7588-1.1865 0.99357-1.1961 0.99357-3.1833z" stroke-width=".26458"/>
    <g>
     <path d="m134.42 69.563 1.1479-0.03858q-0.11575 2.5466-0.11575 6.4148 0 3.8392 0.15434 7.2154h-1.1286q0.18328-3 0.18328-7.2154 0-3.5498-0.24116-6.3762z"/>
     <path d="m82.176 74.9q0 0.33762-1.0707 3.135-1.0611 2.7878-1.9968 5.7781-0.92604 2.9807-0.92604 3.6559h-0.84887q0-0.54019-0.99357-3.8682-0.99357-3.3376-2.4212-7.5723h-0.10611q-0.29904 0.93569-1.3408 3.8489-1.0418 2.9035-1.6495 5.0064-0.59807 2.1029-0.59807 2.5852h-0.84887q0-0.3762-0.44373-1.9582-0.43408-1.582-1.1672-3.9357-0.73312-2.3537-1.1383-3.4148-0.40514-1.0707-0.53055-1.4566l-0.2508-0.70418q-0.05788-0.1447-0.20257-0.55948-0.14469-0.42444-0.14469-0.54019h1.0129q0 0.40514 1.582 5.3055 1.5916 4.8907 1.6977 6.1543h0.03858q0.01929-0.84887 1.746-5.8746 1.7267-5.0354 1.7267-5.5852h1.1479q0 0.35691 1.5916 5.2669 1.5916 4.9003 1.7074 6.1929h0.03858q0.01929-0.82958 1.746-5.8842 1.7363-5.0547 1.7363-5.5756z"/>
     <path d="m82.25 66.007q0 0.33762-1.0707 3.135-1.0611 2.7878-1.9968 5.7781-0.92604 2.9807-0.92604 3.6559h-0.84887q0-0.54019-0.99357-3.8682-0.99357-3.3376-2.4212-7.5723h-0.10611q-0.29904 0.93569-1.3408 3.8489-1.0418 2.9035-1.6495 5.0064-0.59807 2.1029-0.59807 2.5852h-0.84887q0-0.3762-0.44373-1.9582-0.43408-1.582-1.1672-3.9357-0.73312-2.3537-1.1383-3.4148-0.40514-1.0707-0.53055-1.4566l-0.2508-0.70418q-0.05788-0.1447-0.20257-0.55948-0.14469-0.42444-0.14469-0.54019h1.0129q0 0.40514 1.582 5.3055 1.5916 4.8907 1.6977 6.1543h0.03858q0.01929-0.84887 1.746-5.8746 1.7267-5.0354 1.7267-5.5852h1.1479q0 0.35691 1.5916 5.2669 1.5916 4.9003 1.7074 6.1929h0.03858q0.01929-0.82958 1.746-5.8842 1.7363-5.0547 1.7363-5.5756z"/>
    </g>
   </g>
  </g>
 </g>
</svg>
